<?xml version="1.0" encoding="UTF-8" standalone="no"?>
<!-- Created with Inkscape (http://www.inkscape.org/) -->

<svg
   version="1.1"
   id="svg1"
   width="133.33333"
   height="133.33333"
   viewBox="0 0 133.33333 133.33333"
   sodipodi:docname="favicon"
   inkscape:version="1.4 (e7c3feb1, 2024-10-09)"
   inkscape:export-filename="favicon.png"
   inkscape:export-xdpi="96"
   inkscape:export-ydpi="96"
   xmlns:inkscape="http://www.inkscape.org/namespaces/inkscape"
   xmlns:sodipodi="http://sodipodi.sourceforge.net/DTD/sodipodi-0.dtd"
   xmlns="http://www.w3.org/2000/svg"
   xmlns:svg="http://www.w3.org/2000/svg">
  <defs
     id="defs1" />
  <sodipodi:namedview
     id="namedview1"
     pagecolor="#ffffff"
     bordercolor="#000000"
     borderopacity="0.25"
     inkscape:showpageshadow="2"
     inkscape:pageopacity="0.0"
     inkscape:pagecheckerboard="0"
     inkscape:deskcolor="#d1d1d1"
     inkscape:zoom="3.8708862"
     inkscape:cx="54.896989"
     inkscape:cy="53.992804"
     inkscape:window-width="1712"
     inkscape:window-height="1041"
     inkscape:window-x="0"
     inkscape:window-y="43"
     inkscape:window-maximized="0"
     inkscape:current-layer="g1" />
  <g
     inkscape:groupmode="layer"
     inkscape:label="Image"
     id="g1">
    <path
       fill-rule="evenodd"
       clip-rule="evenodd"
       d="m 127.85044,66.666662 c 0,33.790848 -27.39294,61.183788 -61.183773,61.183788 -33.790838,0 -61.1837806,-27.39294 -61.1837806,-61.183788 0,-33.790846 27.3929426,-61.1837807 61.1837806,-61.1837807 33.790833,0 61.183773,27.3929347 61.183773,61.1837807 z M 23.625698,82.049317 C 15.610811,57.194744 28.583205,31.467442 54.691946,22.907354 l 11.021875,14.982952 c 0.473318,0.64348 1.432374,0.64348 1.905692,0 L 78.641388,22.907354 c 26.108352,8.560088 39.081232,34.28739 31.066152,59.141963 -3.83068,11.879117 -11.239165,18.881503 -19.571249,22.799853 l -6.793801,3.17199 c -0.784957,0.36711 -1.683793,-0.2084 -1.683793,-1.07645 V 93.518216 c 0,-0.600365 0.443965,-1.108001 1.034587,-1.20446 1.734836,-0.283358 5.255014,-0.977506 7.443007,-2.221928 3.571404,-2.031205 5.301468,-3.211669 7.2824,-7.625793 4.463059,-9.944562 -2.128049,-23.729077 -3.632023,-26.641521 -0.170932,-0.330966 -0.543587,-0.476565 -0.896158,-0.358978 -1.916965,0.639085 -7.94528,2.794474 -11.231813,5.638755 -6.199829,5.365627 -9.558145,10.710795 -9.558145,19.167923 l 0.289766,37.761106 c 25.865351,-2.84696 45.986202,-24.758214 45.986202,-51.366658 0,-28.541755 -23.151084,-51.679501 -51.709853,-51.679501 -28.558768,0 -51.71016,23.137746 -51.71016,51.679501 0,26.707676 20.271547,48.683168 46.276276,51.397248 V 80.272214 c 0,-8.457128 -3.358317,-13.802296 -9.558146,-19.167923 -3.286533,-2.844281 -9.314848,-4.99967 -11.231812,-5.638753 -0.352572,-0.117596 -0.725227,0.02801 -0.896159,0.358976 -1.503974,2.912444 -8.094614,16.696959 -3.632022,26.641521 1.980932,4.414124 3.710995,5.594588 7.282399,7.625793 2.187993,1.24442 5.708171,1.93857 7.443007,2.221928 0.590622,0.09646 1.034587,0.604095 1.034587,1.20446 v 13.426494 c 0,0.86805 -0.898836,1.44356 -1.683793,1.07645 l -6.793801,-3.17199 C 34.864959,100.93082 27.456368,93.928434 23.625698,82.049317 Z"
       fill="#ffffff"
       id="path1"
       style="fill:#4ccb7c;fill-opacity:1;stroke-width:0.955997" />
  </g>
</svg>
